<svg xmlns="http://www.w3.org/2000/svg" viewBox="0 0 24 24" id="weasyl">
  <path fill="#950600" d="M7.741 21.75c4.067-.307 7.174-1.651 10.04-3.906 1.119-.88 2.659-2.043 3.756-3.237 1.101-1.196 2.296-2.586 2.443-4.534.21-2.799-1.236-4.709-2.751-5.941a8.413 8.413 0 0 0-5.872-1.864c-3.765.244-6.323 2.671-7.363 6.501-1.28-1.228-1.892-3.248-2.093-5.557-1.02.216-1.658.704-2.233 1.241.445 2.323 1.802 4.027 3.264 5.174-2.559.318-5.99 2.45-6.771 4.919-.507 1.603.258 3.426 1.283 4.534 1.237 1.337 3.75 2.004 6.355 1.759.037.364-.104.539-.058.911zM3.892 11.663c.693-.448 1.627-.788 2.478-1.078 1.419 2.056 2.729 4.266 4.171 6.353.019-3.123-.009-6.694-.061-9.95a13.84 13.84 0 0 0 1.527-.435c1.813 2.729 3.553 5.645 5.464 8.385a534.968 534.968 0 0 1-.018-9.799c.858-.283 1.803-.537 2.669-.811.02 3.51-.338 7.15-.327 10.777-1.035 1.004-2.241 1.803-3.351 2.683-1.249-1.993-2.583-3.997-3.887-5.936.017 2.638.006 5.449.04 7.982-.78.382-1.789.56-2.744.766-1.935-2.928-3.968-6.01-5.961-8.937z"></path>
  <path d="m15.332 2.269.025-.001h.001l-.026.001z"></path>
</svg>
